<mxfile host="app.diagrams.net" modified="2021-10-14T08:01:43.574Z" agent="5.0 (Windows NT 10.0; Win64; x64) AppleWebKit/537.36 (KHTML, like Gecko) Chrome/94.0.4606.81 Safari/537.36" etag="igDyw7gHWUDUw4m2Q8mR" version="15.4.3" type="github">
  <diagram id="spv8ccS48C0Q_jatDbC0" name="Page-1">
    <mxGraphModel dx="2016" dy="1154" grid="1" gridSize="10" guides="1" tooltips="1" connect="1" arrows="1" fold="1" page="1" pageScale="1" pageWidth="850" pageHeight="1100" math="0" shadow="0">
      <root>
        <mxCell id="0" />
        <mxCell id="1" parent="0" />
        <mxCell id="jQMmRSuvDewq5A6XQlnB-4" value="ViewFollowedHabitListActivity" style="swimlane;fontStyle=1;align=center;verticalAlign=top;childLayout=stackLayout;horizontal=1;startSize=26;horizontalStack=0;resizeParent=1;resizeParentMax=0;resizeLast=0;collapsible=1;marginBottom=0;fillColor=#f8cecc;strokeColor=#b85450;" parent="1" vertex="1">
          <mxGeometry x="90" y="110" width="210" height="34" as="geometry" />
        </mxCell>
        <mxCell id="jQMmRSuvDewq5A6XQlnB-6" value="" style="line;strokeWidth=1;fillColor=#f8cecc;align=left;verticalAlign=middle;spacingTop=-1;spacingLeft=3;spacingRight=3;rotatable=0;labelPosition=right;points=[];portConstraint=eastwest;strokeColor=#b85450;" parent="jQMmRSuvDewq5A6XQlnB-4" vertex="1">
          <mxGeometry y="26" width="210" height="8" as="geometry" />
        </mxCell>
        <mxCell id="jQMmRSuvDewq5A6XQlnB-9" value="requestAdapter" style="swimlane;fontStyle=1;align=center;verticalAlign=top;childLayout=stackLayout;horizontal=1;startSize=26;horizontalStack=0;resizeParent=1;resizeParentMax=0;resizeLast=0;collapsible=1;marginBottom=0;fillColor=#d5e8d4;strokeColor=#82b366;" parent="1" vertex="1">
          <mxGeometry x="110" y="270" width="160" height="34" as="geometry" />
        </mxCell>
        <mxCell id="jQMmRSuvDewq5A6XQlnB-11" value="" style="line;strokeWidth=1;fillColor=#d5e8d4;align=left;verticalAlign=middle;spacingTop=-1;spacingLeft=3;spacingRight=3;rotatable=0;labelPosition=right;points=[];portConstraint=eastwest;strokeColor=#82b366;" parent="jQMmRSuvDewq5A6XQlnB-9" vertex="1">
          <mxGeometry y="26" width="160" height="8" as="geometry" />
        </mxCell>
        <mxCell id="jQMmRSuvDewq5A6XQlnB-20" style="edgeStyle=orthogonalEdgeStyle;rounded=0;jumpStyle=line;orthogonalLoop=1;jettySize=auto;html=1;strokeWidth=1;endArrow=diamondThin;endFill=1;endSize=12;" parent="1" source="jQMmRSuvDewq5A6XQlnB-13" target="jQMmRSuvDewq5A6XQlnB-9" edge="1">
          <mxGeometry relative="1" as="geometry" />
        </mxCell>
        <mxCell id="jQMmRSuvDewq5A6XQlnB-52" style="edgeStyle=none;rounded=0;jumpStyle=line;orthogonalLoop=1;jettySize=auto;html=1;endArrow=diamondThin;endFill=1;endSize=12;strokeWidth=1;" parent="1" source="jQMmRSuvDewq5A6XQlnB-9" target="jQMmRSuvDewq5A6XQlnB-36" edge="1">
          <mxGeometry relative="1" as="geometry" />
        </mxCell>
        <mxCell id="jQMmRSuvDewq5A6XQlnB-13" value="receiveRequestActivity" style="swimlane;fontStyle=1;align=center;verticalAlign=top;childLayout=stackLayout;horizontal=1;startSize=26;horizontalStack=0;resizeParent=1;resizeParentMax=0;resizeLast=0;collapsible=1;marginBottom=0;fillColor=#f8cecc;strokeColor=#b85450;" parent="1" vertex="1">
          <mxGeometry x="85" y="450" width="210" height="34" as="geometry" />
        </mxCell>
        <mxCell id="jQMmRSuvDewq5A6XQlnB-14" value="" style="line;strokeWidth=1;fillColor=#f8cecc;align=left;verticalAlign=middle;spacingTop=-1;spacingLeft=3;spacingRight=3;rotatable=0;labelPosition=right;points=[];portConstraint=eastwest;strokeColor=#b85450;" parent="jQMmRSuvDewq5A6XQlnB-13" vertex="1">
          <mxGeometry y="26" width="210" height="8" as="geometry" />
        </mxCell>
        <mxCell id="jQMmRSuvDewq5A6XQlnB-16" value="" style="endArrow=diamondThin;endFill=1;endSize=12;html=1;rounded=0;edgeStyle=orthogonalEdgeStyle;strokeWidth=1;jumpStyle=line;" parent="1" source="jQMmRSuvDewq5A6XQlnB-4" target="jQMmRSuvDewq5A6XQlnB-9" edge="1">
          <mxGeometry width="160" relative="1" as="geometry">
            <mxPoint x="160" y="340" as="sourcePoint" />
            <mxPoint x="320" y="340" as="targetPoint" />
            <Array as="points">
              <mxPoint x="190" y="180" />
              <mxPoint x="190" y="180" />
            </Array>
          </mxGeometry>
        </mxCell>
        <mxCell id="jQMmRSuvDewq5A6XQlnB-60" style="edgeStyle=none;rounded=0;jumpStyle=line;orthogonalLoop=1;jettySize=auto;html=1;endArrow=diamondThin;endFill=0;endSize=12;strokeWidth=1;" parent="1" source="jQMmRSuvDewq5A6XQlnB-23" target="jQMmRSuvDewq5A6XQlnB-46" edge="1">
          <mxGeometry relative="1" as="geometry" />
        </mxCell>
        <mxCell id="jQMmRSuvDewq5A6XQlnB-61" style="edgeStyle=none;rounded=0;jumpStyle=line;orthogonalLoop=1;jettySize=auto;html=1;endArrow=diamondThin;endFill=0;endSize=12;strokeWidth=1;" parent="1" source="jQMmRSuvDewq5A6XQlnB-23" target="jQMmRSuvDewq5A6XQlnB-41" edge="1">
          <mxGeometry relative="1" as="geometry" />
        </mxCell>
        <mxCell id="jQMmRSuvDewq5A6XQlnB-23" value="request" style="swimlane;fontStyle=1;align=center;verticalAlign=top;childLayout=stackLayout;horizontal=1;startSize=26;horizontalStack=0;resizeParent=1;resizeParentMax=0;resizeLast=0;collapsible=1;marginBottom=0;fillColor=#dae8fc;strokeColor=default;" parent="1" vertex="1">
          <mxGeometry x="310" y="170" width="160" height="104" as="geometry">
            <mxRectangle x="390" y="120" width="80" height="26" as="alternateBounds" />
          </mxGeometry>
        </mxCell>
        <mxCell id="jQMmRSuvDewq5A6XQlnB-24" value="receiver" style="text;strokeColor=default;fillColor=#dae8fc;align=left;verticalAlign=top;spacingLeft=4;spacingRight=4;overflow=hidden;rotatable=0;points=[[0,0.5],[1,0.5]];portConstraint=eastwest;" parent="jQMmRSuvDewq5A6XQlnB-23" vertex="1">
          <mxGeometry y="26" width="160" height="26" as="geometry" />
        </mxCell>
        <mxCell id="jQMmRSuvDewq5A6XQlnB-26" value="sender" style="text;strokeColor=default;fillColor=#dae8fc;align=left;verticalAlign=top;spacingLeft=4;spacingRight=4;overflow=hidden;rotatable=0;points=[[0,0.5],[1,0.5]];portConstraint=eastwest;" parent="jQMmRSuvDewq5A6XQlnB-23" vertex="1">
          <mxGeometry y="52" width="160" height="26" as="geometry" />
        </mxCell>
        <mxCell id="jQMmRSuvDewq5A6XQlnB-36" value="requestStatus" style="text;strokeColor=default;fillColor=#dae8fc;align=left;verticalAlign=top;spacingLeft=4;spacingRight=4;overflow=hidden;rotatable=0;points=[[0,0.5],[1,0.5]];portConstraint=eastwest;" parent="jQMmRSuvDewq5A6XQlnB-23" vertex="1">
          <mxGeometry y="78" width="160" height="26" as="geometry" />
        </mxCell>
        <mxCell id="jQMmRSuvDewq5A6XQlnB-51" style="rounded=0;jumpStyle=line;orthogonalLoop=1;jettySize=auto;html=1;endArrow=blockThin;endFill=0;endSize=12;strokeWidth=1;" parent="1" source="jQMmRSuvDewq5A6XQlnB-40" target="jQMmRSuvDewq5A6XQlnB-48" edge="1">
          <mxGeometry relative="1" as="geometry" />
        </mxCell>
        <mxCell id="jQMmRSuvDewq5A6XQlnB-40" value="requestSendList" style="swimlane;fontStyle=1;align=center;verticalAlign=top;childLayout=stackLayout;horizontal=1;startSize=26;horizontalStack=0;resizeParent=1;resizeParentMax=0;resizeLast=0;collapsible=1;marginBottom=0;fillColor=#dae8fc;strokeColor=#6c8ebf;" parent="1" vertex="1">
          <mxGeometry x="590" y="58" width="160" height="52" as="geometry">
            <mxRectangle x="390" y="120" width="80" height="26" as="alternateBounds" />
          </mxGeometry>
        </mxCell>
        <mxCell id="jQMmRSuvDewq5A6XQlnB-41" value="ArrayList&lt;request&gt;" style="text;strokeColor=#6c8ebf;fillColor=#dae8fc;align=left;verticalAlign=top;spacingLeft=4;spacingRight=4;overflow=hidden;rotatable=0;points=[[0,0.5],[1,0.5]];portConstraint=eastwest;" parent="jQMmRSuvDewq5A6XQlnB-40" vertex="1">
          <mxGeometry y="26" width="160" height="26" as="geometry" />
        </mxCell>
        <mxCell id="jQMmRSuvDewq5A6XQlnB-50" style="rounded=0;jumpStyle=line;orthogonalLoop=1;jettySize=auto;html=1;endArrow=blockThin;endFill=0;endSize=12;strokeWidth=1;" parent="1" source="jQMmRSuvDewq5A6XQlnB-46" target="jQMmRSuvDewq5A6XQlnB-48" edge="1">
          <mxGeometry relative="1" as="geometry" />
        </mxCell>
        <mxCell id="jQMmRSuvDewq5A6XQlnB-46" value="requestReceiveList" style="swimlane;fontStyle=1;align=center;verticalAlign=top;childLayout=stackLayout;horizontal=1;startSize=26;horizontalStack=0;resizeParent=1;resizeParentMax=0;resizeLast=0;collapsible=1;marginBottom=0;fillColor=#dae8fc;strokeColor=#6c8ebf;" parent="1" vertex="1">
          <mxGeometry x="450" y="420" width="160" height="52" as="geometry">
            <mxRectangle x="390" y="120" width="80" height="26" as="alternateBounds" />
          </mxGeometry>
        </mxCell>
        <mxCell id="jQMmRSuvDewq5A6XQlnB-47" value="ArrayList&lt;request&gt;" style="text;strokeColor=#6c8ebf;fillColor=#dae8fc;align=left;verticalAlign=top;spacingLeft=4;spacingRight=4;overflow=hidden;rotatable=0;points=[[0,0.5],[1,0.5]];portConstraint=eastwest;" parent="jQMmRSuvDewq5A6XQlnB-46" vertex="1">
          <mxGeometry y="26" width="160" height="26" as="geometry" />
        </mxCell>
        <mxCell id="jQMmRSuvDewq5A6XQlnB-48" value="ArrayList" style="swimlane;fontStyle=1;align=center;verticalAlign=top;childLayout=stackLayout;horizontal=1;startSize=26;horizontalStack=0;resizeParent=1;resizeParentMax=0;resizeLast=0;collapsible=1;marginBottom=0;fillColor=#dae8fc;strokeColor=#6c8ebf;" parent="1" vertex="1">
          <mxGeometry x="540" y="292" width="160" height="52" as="geometry">
            <mxRectangle x="390" y="120" width="80" height="26" as="alternateBounds" />
          </mxGeometry>
        </mxCell>
        <mxCell id="jQMmRSuvDewq5A6XQlnB-49" value="" style="text;strokeColor=#6c8ebf;fillColor=#dae8fc;align=left;verticalAlign=top;spacingLeft=4;spacingRight=4;overflow=hidden;rotatable=0;points=[[0,0.5],[1,0.5]];portConstraint=eastwest;" parent="jQMmRSuvDewq5A6XQlnB-48" vertex="1">
          <mxGeometry y="26" width="160" height="26" as="geometry" />
        </mxCell>
        <mxCell id="jQMmRSuvDewq5A6XQlnB-59" style="edgeStyle=none;rounded=0;jumpStyle=line;orthogonalLoop=1;jettySize=auto;html=1;endArrow=diamondThin;endFill=1;endSize=12;strokeWidth=1;" parent="1" source="jQMmRSuvDewq5A6XQlnB-57" target="jQMmRSuvDewq5A6XQlnB-9" edge="1">
          <mxGeometry relative="1" as="geometry" />
        </mxCell>
        <mxCell id="jQMmRSuvDewq5A6XQlnB-57" value="pullRequestAcrivity" style="swimlane;fontStyle=1;align=center;verticalAlign=top;childLayout=stackLayout;horizontal=1;startSize=26;horizontalStack=0;resizeParent=1;resizeParentMax=0;resizeLast=0;collapsible=1;marginBottom=0;fillColor=#f8cecc;strokeColor=#b85450;" parent="1" vertex="1">
          <mxGeometry x="295" y="520" width="210" height="34" as="geometry" />
        </mxCell>
        <mxCell id="jQMmRSuvDewq5A6XQlnB-58" value="" style="line;strokeWidth=1;fillColor=#f8cecc;align=left;verticalAlign=middle;spacingTop=-1;spacingLeft=3;spacingRight=3;rotatable=0;labelPosition=right;points=[];portConstraint=eastwest;strokeColor=#b85450;" parent="jQMmRSuvDewq5A6XQlnB-57" vertex="1">
          <mxGeometry y="26" width="210" height="8" as="geometry" />
        </mxCell>
        <mxCell id="jQMmRSuvDewq5A6XQlnB-62" value="User" style="swimlane;fontStyle=1;align=center;verticalAlign=top;childLayout=stackLayout;horizontal=1;startSize=26;horizontalStack=0;resizeParent=1;resizeParentMax=0;resizeLast=0;collapsible=1;marginBottom=0;fillColor=#dae8fc;strokeColor=default;" parent="1" vertex="1">
          <mxGeometry x="810" y="390" width="160" height="156" as="geometry">
            <mxRectangle x="390" y="120" width="80" height="26" as="alternateBounds" />
          </mxGeometry>
        </mxCell>
        <mxCell id="jQMmRSuvDewq5A6XQlnB-63" value="HabitList&lt;habit&gt;" style="text;strokeColor=default;fillColor=#dae8fc;align=left;verticalAlign=top;spacingLeft=4;spacingRight=4;overflow=hidden;rotatable=0;points=[[0,0.5],[1,0.5]];portConstraint=eastwest;" parent="jQMmRSuvDewq5A6XQlnB-62" vertex="1">
          <mxGeometry y="26" width="160" height="26" as="geometry" />
        </mxCell>
        <mxCell id="jQMmRSuvDewq5A6XQlnB-64" value="HabitEvenList&lt;habitevent&gt;" style="text;strokeColor=default;fillColor=#dae8fc;align=left;verticalAlign=top;spacingLeft=4;spacingRight=4;overflow=hidden;rotatable=0;points=[[0,0.5],[1,0.5]];portConstraint=eastwest;" parent="jQMmRSuvDewq5A6XQlnB-62" vertex="1">
          <mxGeometry y="52" width="160" height="26" as="geometry" />
        </mxCell>
        <mxCell id="jQMmRSuvDewq5A6XQlnB-65" value="UserProfile" style="text;strokeColor=default;fillColor=#dae8fc;align=left;verticalAlign=top;spacingLeft=4;spacingRight=4;overflow=hidden;rotatable=0;points=[[0,0.5],[1,0.5]];portConstraint=eastwest;" parent="jQMmRSuvDewq5A6XQlnB-62" vertex="1">
          <mxGeometry y="78" width="160" height="26" as="geometry" />
        </mxCell>
        <mxCell id="jQMmRSuvDewq5A6XQlnB-66" value="requestSendList" style="text;strokeColor=default;fillColor=#dae8fc;align=left;verticalAlign=top;spacingLeft=4;spacingRight=4;overflow=hidden;rotatable=0;points=[[0,0.5],[1,0.5]];portConstraint=eastwest;" parent="jQMmRSuvDewq5A6XQlnB-62" vertex="1">
          <mxGeometry y="104" width="160" height="26" as="geometry" />
        </mxCell>
        <mxCell id="jQMmRSuvDewq5A6XQlnB-67" value="requestReceivedList" style="text;strokeColor=default;fillColor=#dae8fc;align=left;verticalAlign=top;spacingLeft=4;spacingRight=4;overflow=hidden;rotatable=0;points=[[0,0.5],[1,0.5]];portConstraint=eastwest;" parent="jQMmRSuvDewq5A6XQlnB-62" vertex="1">
          <mxGeometry y="130" width="160" height="26" as="geometry" />
        </mxCell>
        <mxCell id="jQMmRSuvDewq5A6XQlnB-68" style="edgeStyle=none;rounded=0;jumpStyle=line;orthogonalLoop=1;jettySize=auto;html=1;endArrow=diamondThin;endFill=1;endSize=12;strokeWidth=1;" parent="1" source="jQMmRSuvDewq5A6XQlnB-41" target="jQMmRSuvDewq5A6XQlnB-62" edge="1">
          <mxGeometry relative="1" as="geometry" />
        </mxCell>
        <mxCell id="jQMmRSuvDewq5A6XQlnB-69" style="edgeStyle=none;rounded=0;jumpStyle=line;orthogonalLoop=1;jettySize=auto;html=1;endArrow=diamondThin;endFill=1;endSize=12;strokeWidth=1;" parent="1" source="jQMmRSuvDewq5A6XQlnB-47" target="jQMmRSuvDewq5A6XQlnB-64" edge="1">
          <mxGeometry relative="1" as="geometry" />
        </mxCell>
        <mxCell id="jQMmRSuvDewq5A6XQlnB-78" style="edgeStyle=none;rounded=0;jumpStyle=line;orthogonalLoop=1;jettySize=auto;html=1;endArrow=blockThin;endFill=0;endSize=12;strokeWidth=1;" parent="1" source="jQMmRSuvDewq5A6XQlnB-71" target="jQMmRSuvDewq5A6XQlnB-73" edge="1">
          <mxGeometry relative="1" as="geometry" />
        </mxCell>
        <mxCell id="jQMmRSuvDewq5A6XQlnB-79" style="edgeStyle=none;rounded=0;jumpStyle=line;orthogonalLoop=1;jettySize=auto;html=1;entryX=0.706;entryY=0.006;entryDx=0;entryDy=0;entryPerimeter=0;endArrow=diamondThin;endFill=1;endSize=12;strokeWidth=1;" parent="1" source="jQMmRSuvDewq5A6XQlnB-71" target="jQMmRSuvDewq5A6XQlnB-62" edge="1">
          <mxGeometry relative="1" as="geometry" />
        </mxCell>
        <mxCell id="jQMmRSuvDewq5A6XQlnB-71" value="HabitEventList" style="swimlane;fontStyle=1;align=center;verticalAlign=top;childLayout=stackLayout;horizontal=1;startSize=26;horizontalStack=0;resizeParent=1;resizeParentMax=0;resizeLast=0;collapsible=1;marginBottom=0;fillColor=#dae8fc;strokeColor=#6c8ebf;" parent="1" vertex="1">
          <mxGeometry x="1130" y="70" width="160" height="52" as="geometry">
            <mxRectangle x="390" y="120" width="80" height="26" as="alternateBounds" />
          </mxGeometry>
        </mxCell>
        <mxCell id="jQMmRSuvDewq5A6XQlnB-72" value="ArrayList&lt;habitevent&gt;" style="text;strokeColor=#6c8ebf;fillColor=#dae8fc;align=left;verticalAlign=top;spacingLeft=4;spacingRight=4;overflow=hidden;rotatable=0;points=[[0,0.5],[1,0.5]];portConstraint=eastwest;" parent="jQMmRSuvDewq5A6XQlnB-71" vertex="1">
          <mxGeometry y="26" width="160" height="26" as="geometry" />
        </mxCell>
        <mxCell id="jQMmRSuvDewq5A6XQlnB-73" value="ArrayList" style="swimlane;fontStyle=1;align=center;verticalAlign=top;childLayout=stackLayout;horizontal=1;startSize=26;horizontalStack=0;resizeParent=1;resizeParentMax=0;resizeLast=0;collapsible=1;marginBottom=0;fillColor=#dae8fc;strokeColor=#6c8ebf;" parent="1" vertex="1">
          <mxGeometry x="1140" y="292" width="160" height="52" as="geometry">
            <mxRectangle x="390" y="120" width="80" height="26" as="alternateBounds" />
          </mxGeometry>
        </mxCell>
        <mxCell id="jQMmRSuvDewq5A6XQlnB-74" value="" style="text;strokeColor=#6c8ebf;fillColor=#dae8fc;align=left;verticalAlign=top;spacingLeft=4;spacingRight=4;overflow=hidden;rotatable=0;points=[[0,0.5],[1,0.5]];portConstraint=eastwest;" parent="jQMmRSuvDewq5A6XQlnB-73" vertex="1">
          <mxGeometry y="26" width="160" height="26" as="geometry" />
        </mxCell>
        <mxCell id="jQMmRSuvDewq5A6XQlnB-77" style="edgeStyle=none;rounded=0;jumpStyle=line;orthogonalLoop=1;jettySize=auto;html=1;endArrow=blockThin;endFill=0;endSize=12;strokeWidth=1;" parent="1" source="jQMmRSuvDewq5A6XQlnB-75" target="jQMmRSuvDewq5A6XQlnB-74" edge="1">
          <mxGeometry relative="1" as="geometry" />
        </mxCell>
        <mxCell id="jQMmRSuvDewq5A6XQlnB-80" style="edgeStyle=none;rounded=0;jumpStyle=line;orthogonalLoop=1;jettySize=auto;html=1;endArrow=diamondThin;endFill=1;endSize=12;strokeWidth=1;" parent="1" source="jQMmRSuvDewq5A6XQlnB-75" target="jQMmRSuvDewq5A6XQlnB-67" edge="1">
          <mxGeometry relative="1" as="geometry" />
        </mxCell>
        <mxCell id="jQMmRSuvDewq5A6XQlnB-75" value="HabitList" style="swimlane;fontStyle=1;align=center;verticalAlign=top;childLayout=stackLayout;horizontal=1;startSize=26;horizontalStack=0;resizeParent=1;resizeParentMax=0;resizeLast=0;collapsible=1;marginBottom=0;fillColor=#dae8fc;strokeColor=#6c8ebf;" parent="1" vertex="1">
          <mxGeometry x="1100" y="620" width="160" height="52" as="geometry">
            <mxRectangle x="390" y="120" width="80" height="26" as="alternateBounds" />
          </mxGeometry>
        </mxCell>
        <mxCell id="jQMmRSuvDewq5A6XQlnB-76" value="ArrayList&lt;habit&gt;" style="text;strokeColor=#6c8ebf;fillColor=#dae8fc;align=left;verticalAlign=top;spacingLeft=4;spacingRight=4;overflow=hidden;rotatable=0;points=[[0,0.5],[1,0.5]];portConstraint=eastwest;" parent="jQMmRSuvDewq5A6XQlnB-75" vertex="1">
          <mxGeometry y="26" width="160" height="26" as="geometry" />
        </mxCell>
        <mxCell id="O9s7gbecg066Yc_L37mW-30" style="edgeStyle=none;rounded=0;jumpStyle=line;orthogonalLoop=1;jettySize=auto;html=1;endArrow=diamondThin;endFill=0;endSize=12;strokeWidth=1;" edge="1" parent="1" source="O9s7gbecg066Yc_L37mW-1" target="jQMmRSuvDewq5A6XQlnB-72">
          <mxGeometry relative="1" as="geometry" />
        </mxCell>
        <mxCell id="O9s7gbecg066Yc_L37mW-1" value="habitEvent" style="swimlane;fontStyle=1;align=center;verticalAlign=top;childLayout=stackLayout;horizontal=1;startSize=26;horizontalStack=0;resizeParent=1;resizeParentMax=0;resizeLast=0;collapsible=1;marginBottom=0;strokeColor=#6c8ebf;fillColor=#dae8fc;" vertex="1" parent="1">
          <mxGeometry x="1450" y="82" width="160" height="320" as="geometry">
            <mxRectangle x="1450" y="82" width="90" height="26" as="alternateBounds" />
          </mxGeometry>
        </mxCell>
        <mxCell id="O9s7gbecg066Yc_L37mW-2" value="habiit" style="text;strokeColor=#6c8ebf;fillColor=#dae8fc;align=left;verticalAlign=top;spacingLeft=4;spacingRight=4;overflow=hidden;rotatable=0;points=[[0,0.5],[1,0.5]];portConstraint=eastwest;" vertex="1" parent="O9s7gbecg066Yc_L37mW-1">
          <mxGeometry y="26" width="160" height="26" as="geometry" />
        </mxCell>
        <mxCell id="O9s7gbecg066Yc_L37mW-4" value="EventTime" style="text;strokeColor=#6c8ebf;fillColor=#dae8fc;align=left;verticalAlign=top;spacingLeft=4;spacingRight=4;overflow=hidden;rotatable=0;points=[[0,0.5],[1,0.5]];portConstraint=eastwest;" vertex="1" parent="O9s7gbecg066Yc_L37mW-1">
          <mxGeometry y="52" width="160" height="26" as="geometry" />
        </mxCell>
        <mxCell id="O9s7gbecg066Yc_L37mW-5" value="Comment" style="text;strokeColor=#6c8ebf;fillColor=#dae8fc;align=left;verticalAlign=top;spacingLeft=4;spacingRight=4;overflow=hidden;rotatable=0;points=[[0,0.5],[1,0.5]];portConstraint=eastwest;" vertex="1" parent="O9s7gbecg066Yc_L37mW-1">
          <mxGeometry y="78" width="160" height="26" as="geometry" />
        </mxCell>
        <mxCell id="O9s7gbecg066Yc_L37mW-6" value="Photograph" style="text;strokeColor=#6c8ebf;fillColor=#dae8fc;align=left;verticalAlign=top;spacingLeft=4;spacingRight=4;overflow=hidden;rotatable=0;points=[[0,0.5],[1,0.5]];portConstraint=eastwest;" vertex="1" parent="O9s7gbecg066Yc_L37mW-1">
          <mxGeometry y="104" width="160" height="26" as="geometry" />
        </mxCell>
        <mxCell id="O9s7gbecg066Yc_L37mW-7" value="Geolocation" style="text;strokeColor=#6c8ebf;fillColor=#dae8fc;align=left;verticalAlign=top;spacingLeft=4;spacingRight=4;overflow=hidden;rotatable=0;points=[[0,0.5],[1,0.5]];portConstraint=eastwest;" vertex="1" parent="O9s7gbecg066Yc_L37mW-1">
          <mxGeometry y="130" width="160" height="26" as="geometry" />
        </mxCell>
        <mxCell id="O9s7gbecg066Yc_L37mW-3" value="" style="line;strokeWidth=1;fillColor=#dae8fc;align=left;verticalAlign=middle;spacingTop=-1;spacingLeft=3;spacingRight=3;rotatable=0;labelPosition=right;points=[];portConstraint=eastwest;strokeColor=#6c8ebf;" vertex="1" parent="O9s7gbecg066Yc_L37mW-1">
          <mxGeometry y="156" width="160" height="8" as="geometry" />
        </mxCell>
        <mxCell id="O9s7gbecg066Yc_L37mW-8" value="getHabitEvent()" style="text;strokeColor=#6c8ebf;fillColor=#dae8fc;align=left;verticalAlign=top;spacingLeft=4;spacingRight=4;overflow=hidden;rotatable=0;points=[[0,0.5],[1,0.5]];portConstraint=eastwest;" vertex="1" parent="O9s7gbecg066Yc_L37mW-1">
          <mxGeometry y="164" width="160" height="26" as="geometry" />
        </mxCell>
        <mxCell id="O9s7gbecg066Yc_L37mW-9" value="setHabitEvent()" style="text;strokeColor=#6c8ebf;fillColor=#dae8fc;align=left;verticalAlign=top;spacingLeft=4;spacingRight=4;overflow=hidden;rotatable=0;points=[[0,0.5],[1,0.5]];portConstraint=eastwest;" vertex="1" parent="O9s7gbecg066Yc_L37mW-1">
          <mxGeometry y="190" width="160" height="26" as="geometry" />
        </mxCell>
        <mxCell id="O9s7gbecg066Yc_L37mW-10" value="getEventTIme()" style="text;strokeColor=#6c8ebf;fillColor=#dae8fc;align=left;verticalAlign=top;spacingLeft=4;spacingRight=4;overflow=hidden;rotatable=0;points=[[0,0.5],[1,0.5]];portConstraint=eastwest;" vertex="1" parent="O9s7gbecg066Yc_L37mW-1">
          <mxGeometry y="216" width="160" height="26" as="geometry" />
        </mxCell>
        <mxCell id="O9s7gbecg066Yc_L37mW-11" value="setEventTime()" style="text;strokeColor=#6c8ebf;fillColor=#dae8fc;align=left;verticalAlign=top;spacingLeft=4;spacingRight=4;overflow=hidden;rotatable=0;points=[[0,0.5],[1,0.5]];portConstraint=eastwest;" vertex="1" parent="O9s7gbecg066Yc_L37mW-1">
          <mxGeometry y="242" width="160" height="26" as="geometry" />
        </mxCell>
        <mxCell id="O9s7gbecg066Yc_L37mW-12" value="getPhotograph" style="text;strokeColor=#6c8ebf;fillColor=#dae8fc;align=left;verticalAlign=top;spacingLeft=4;spacingRight=4;overflow=hidden;rotatable=0;points=[[0,0.5],[1,0.5]];portConstraint=eastwest;" vertex="1" parent="O9s7gbecg066Yc_L37mW-1">
          <mxGeometry y="268" width="160" height="26" as="geometry" />
        </mxCell>
        <mxCell id="O9s7gbecg066Yc_L37mW-13" value="setPhotographj()" style="text;strokeColor=#6c8ebf;fillColor=#dae8fc;align=left;verticalAlign=top;spacingLeft=4;spacingRight=4;overflow=hidden;rotatable=0;points=[[0,0.5],[1,0.5]];portConstraint=eastwest;" vertex="1" parent="O9s7gbecg066Yc_L37mW-1">
          <mxGeometry y="294" width="160" height="26" as="geometry" />
        </mxCell>
        <mxCell id="O9s7gbecg066Yc_L37mW-29" style="edgeStyle=none;rounded=0;jumpStyle=line;orthogonalLoop=1;jettySize=auto;html=1;endArrow=diamondThin;endFill=0;endSize=12;strokeWidth=1;" edge="1" parent="1" source="O9s7gbecg066Yc_L37mW-14" target="jQMmRSuvDewq5A6XQlnB-76">
          <mxGeometry relative="1" as="geometry" />
        </mxCell>
        <mxCell id="O9s7gbecg066Yc_L37mW-14" value="habit" style="swimlane;fontStyle=1;align=center;verticalAlign=top;childLayout=stackLayout;horizontal=1;startSize=26;horizontalStack=0;resizeParent=1;resizeParentMax=0;resizeLast=0;collapsible=1;marginBottom=0;strokeColor=#6c8ebf;fillColor=#dae8fc;" vertex="1" parent="1">
          <mxGeometry x="1410" y="650" width="160" height="372" as="geometry">
            <mxRectangle x="1410" y="650" width="60" height="26" as="alternateBounds" />
          </mxGeometry>
        </mxCell>
        <mxCell id="O9s7gbecg066Yc_L37mW-15" value="habitName" style="text;strokeColor=#6c8ebf;fillColor=#dae8fc;align=left;verticalAlign=top;spacingLeft=4;spacingRight=4;overflow=hidden;rotatable=0;points=[[0,0.5],[1,0.5]];portConstraint=eastwest;" vertex="1" parent="O9s7gbecg066Yc_L37mW-14">
          <mxGeometry y="26" width="160" height="26" as="geometry" />
        </mxCell>
        <mxCell id="O9s7gbecg066Yc_L37mW-16" value="HbaitDescription" style="text;strokeColor=#6c8ebf;fillColor=#dae8fc;align=left;verticalAlign=top;spacingLeft=4;spacingRight=4;overflow=hidden;rotatable=0;points=[[0,0.5],[1,0.5]];portConstraint=eastwest;" vertex="1" parent="O9s7gbecg066Yc_L37mW-14">
          <mxGeometry y="52" width="160" height="26" as="geometry" />
        </mxCell>
        <mxCell id="O9s7gbecg066Yc_L37mW-17" value="DayOccur" style="text;strokeColor=#6c8ebf;fillColor=#dae8fc;align=left;verticalAlign=top;spacingLeft=4;spacingRight=4;overflow=hidden;rotatable=0;points=[[0,0.5],[1,0.5]];portConstraint=eastwest;" vertex="1" parent="O9s7gbecg066Yc_L37mW-14">
          <mxGeometry y="78" width="160" height="26" as="geometry" />
        </mxCell>
        <mxCell id="O9s7gbecg066Yc_L37mW-28" value="DateToStart" style="text;strokeColor=#6c8ebf;fillColor=#dae8fc;align=left;verticalAlign=top;spacingLeft=4;spacingRight=4;overflow=hidden;rotatable=0;points=[[0,0.5],[1,0.5]];portConstraint=eastwest;" vertex="1" parent="O9s7gbecg066Yc_L37mW-14">
          <mxGeometry y="104" width="160" height="26" as="geometry" />
        </mxCell>
        <mxCell id="O9s7gbecg066Yc_L37mW-20" value="" style="line;strokeWidth=1;fillColor=#dae8fc;align=left;verticalAlign=middle;spacingTop=-1;spacingLeft=3;spacingRight=3;rotatable=0;labelPosition=right;points=[];portConstraint=eastwest;strokeColor=#6c8ebf;" vertex="1" parent="O9s7gbecg066Yc_L37mW-14">
          <mxGeometry y="130" width="160" height="8" as="geometry" />
        </mxCell>
        <mxCell id="O9s7gbecg066Yc_L37mW-18" value="getName()" style="text;strokeColor=#6c8ebf;fillColor=#dae8fc;align=left;verticalAlign=top;spacingLeft=4;spacingRight=4;overflow=hidden;rotatable=0;points=[[0,0.5],[1,0.5]];portConstraint=eastwest;" vertex="1" parent="O9s7gbecg066Yc_L37mW-14">
          <mxGeometry y="138" width="160" height="26" as="geometry" />
        </mxCell>
        <mxCell id="O9s7gbecg066Yc_L37mW-19" value="setName()" style="text;strokeColor=#6c8ebf;fillColor=#dae8fc;align=left;verticalAlign=top;spacingLeft=4;spacingRight=4;overflow=hidden;rotatable=0;points=[[0,0.5],[1,0.5]];portConstraint=eastwest;" vertex="1" parent="O9s7gbecg066Yc_L37mW-14">
          <mxGeometry y="164" width="160" height="26" as="geometry" />
        </mxCell>
        <mxCell id="O9s7gbecg066Yc_L37mW-27" value="setName()" style="text;strokeColor=#6c8ebf;fillColor=#dae8fc;align=left;verticalAlign=top;spacingLeft=4;spacingRight=4;overflow=hidden;rotatable=0;points=[[0,0.5],[1,0.5]];portConstraint=eastwest;" vertex="1" parent="O9s7gbecg066Yc_L37mW-14">
          <mxGeometry y="190" width="160" height="26" as="geometry" />
        </mxCell>
        <mxCell id="O9s7gbecg066Yc_L37mW-21" value="getDescription()" style="text;strokeColor=#6c8ebf;fillColor=#dae8fc;align=left;verticalAlign=top;spacingLeft=4;spacingRight=4;overflow=hidden;rotatable=0;points=[[0,0.5],[1,0.5]];portConstraint=eastwest;" vertex="1" parent="O9s7gbecg066Yc_L37mW-14">
          <mxGeometry y="216" width="160" height="26" as="geometry" />
        </mxCell>
        <mxCell id="O9s7gbecg066Yc_L37mW-22" value="setDescription()" style="text;strokeColor=#6c8ebf;fillColor=#dae8fc;align=left;verticalAlign=top;spacingLeft=4;spacingRight=4;overflow=hidden;rotatable=0;points=[[0,0.5],[1,0.5]];portConstraint=eastwest;" vertex="1" parent="O9s7gbecg066Yc_L37mW-14">
          <mxGeometry y="242" width="160" height="26" as="geometry" />
        </mxCell>
        <mxCell id="O9s7gbecg066Yc_L37mW-23" value="getDayOccur()" style="text;strokeColor=#6c8ebf;fillColor=#dae8fc;align=left;verticalAlign=top;spacingLeft=4;spacingRight=4;overflow=hidden;rotatable=0;points=[[0,0.5],[1,0.5]];portConstraint=eastwest;" vertex="1" parent="O9s7gbecg066Yc_L37mW-14">
          <mxGeometry y="268" width="160" height="26" as="geometry" />
        </mxCell>
        <mxCell id="O9s7gbecg066Yc_L37mW-24" value="setDayOccur()" style="text;strokeColor=#6c8ebf;fillColor=#dae8fc;align=left;verticalAlign=top;spacingLeft=4;spacingRight=4;overflow=hidden;rotatable=0;points=[[0,0.5],[1,0.5]];portConstraint=eastwest;" vertex="1" parent="O9s7gbecg066Yc_L37mW-14">
          <mxGeometry y="294" width="160" height="26" as="geometry" />
        </mxCell>
        <mxCell id="O9s7gbecg066Yc_L37mW-25" value="getDateToStart()" style="text;strokeColor=#6c8ebf;fillColor=#dae8fc;align=left;verticalAlign=top;spacingLeft=4;spacingRight=4;overflow=hidden;rotatable=0;points=[[0,0.5],[1,0.5]];portConstraint=eastwest;" vertex="1" parent="O9s7gbecg066Yc_L37mW-14">
          <mxGeometry y="320" width="160" height="26" as="geometry" />
        </mxCell>
        <mxCell id="O9s7gbecg066Yc_L37mW-26" value="setDateToStart()" style="text;strokeColor=#6c8ebf;fillColor=#dae8fc;align=left;verticalAlign=top;spacingLeft=4;spacingRight=4;overflow=hidden;rotatable=0;points=[[0,0.5],[1,0.5]];portConstraint=eastwest;" vertex="1" parent="O9s7gbecg066Yc_L37mW-14">
          <mxGeometry y="346" width="160" height="26" as="geometry" />
        </mxCell>
        <mxCell id="O9s7gbecg066Yc_L37mW-35" style="edgeStyle=none;rounded=0;jumpStyle=line;orthogonalLoop=1;jettySize=auto;html=1;endArrow=diamondThin;endFill=1;endSize=12;strokeWidth=1;" edge="1" parent="1" source="O9s7gbecg066Yc_L37mW-31" target="O9s7gbecg066Yc_L37mW-1">
          <mxGeometry relative="1" as="geometry" />
        </mxCell>
        <mxCell id="O9s7gbecg066Yc_L37mW-31" value="habitEventAdapter" style="swimlane;fontStyle=1;align=center;verticalAlign=top;childLayout=stackLayout;horizontal=1;startSize=26;horizontalStack=0;resizeParent=1;resizeParentMax=0;resizeLast=0;collapsible=1;marginBottom=0;strokeColor=#82b366;fillColor=#d5e8d4;" vertex="1" parent="1">
          <mxGeometry x="1950" y="186" width="160" height="34" as="geometry" />
        </mxCell>
        <mxCell id="O9s7gbecg066Yc_L37mW-33" value="" style="line;strokeWidth=1;fillColor=#d5e8d4;align=left;verticalAlign=middle;spacingTop=-1;spacingLeft=3;spacingRight=3;rotatable=0;labelPosition=right;points=[];portConstraint=eastwest;strokeColor=#82b366;" vertex="1" parent="O9s7gbecg066Yc_L37mW-31">
          <mxGeometry y="26" width="160" height="8" as="geometry" />
        </mxCell>
        <mxCell id="O9s7gbecg066Yc_L37mW-38" style="edgeStyle=none;rounded=0;jumpStyle=line;orthogonalLoop=1;jettySize=auto;html=1;endArrow=diamondThin;endFill=1;endSize=12;strokeWidth=1;" edge="1" parent="1" source="O9s7gbecg066Yc_L37mW-36" target="O9s7gbecg066Yc_L37mW-31">
          <mxGeometry relative="1" as="geometry" />
        </mxCell>
        <mxCell id="O9s7gbecg066Yc_L37mW-36" value="uploadActivity" style="swimlane;fontStyle=1;align=center;verticalAlign=top;childLayout=stackLayout;horizontal=1;startSize=26;horizontalStack=0;resizeParent=1;resizeParentMax=0;resizeLast=0;collapsible=1;marginBottom=0;strokeColor=#b85450;fillColor=#f8cecc;" vertex="1" parent="1">
          <mxGeometry x="1970" y="330" width="160" height="34" as="geometry" />
        </mxCell>
        <mxCell id="O9s7gbecg066Yc_L37mW-37" value="" style="line;strokeWidth=1;fillColor=#f8cecc;align=left;verticalAlign=middle;spacingTop=-1;spacingLeft=3;spacingRight=3;rotatable=0;labelPosition=right;points=[];portConstraint=eastwest;strokeColor=#b85450;" vertex="1" parent="O9s7gbecg066Yc_L37mW-36">
          <mxGeometry y="26" width="160" height="8" as="geometry" />
        </mxCell>
        <mxCell id="O9s7gbecg066Yc_L37mW-41" style="edgeStyle=none;rounded=0;jumpStyle=line;orthogonalLoop=1;jettySize=auto;html=1;endArrow=diamondThin;endFill=1;endSize=12;strokeWidth=1;" edge="1" parent="1" source="O9s7gbecg066Yc_L37mW-39" target="O9s7gbecg066Yc_L37mW-31">
          <mxGeometry relative="1" as="geometry" />
        </mxCell>
        <mxCell id="O9s7gbecg066Yc_L37mW-39" value="editHabitEventActivity" style="swimlane;fontStyle=1;align=center;verticalAlign=top;childLayout=stackLayout;horizontal=1;startSize=26;horizontalStack=0;resizeParent=1;resizeParentMax=0;resizeLast=0;collapsible=1;marginBottom=0;strokeColor=#b85450;fillColor=#f8cecc;" vertex="1" parent="1">
          <mxGeometry x="1830" y="410" width="160" height="34" as="geometry" />
        </mxCell>
        <mxCell id="O9s7gbecg066Yc_L37mW-40" value="" style="line;strokeWidth=1;fillColor=#f8cecc;align=left;verticalAlign=middle;spacingTop=-1;spacingLeft=3;spacingRight=3;rotatable=0;labelPosition=right;points=[];portConstraint=eastwest;strokeColor=#b85450;" vertex="1" parent="O9s7gbecg066Yc_L37mW-39">
          <mxGeometry y="26" width="160" height="8" as="geometry" />
        </mxCell>
        <mxCell id="O9s7gbecg066Yc_L37mW-44" style="edgeStyle=none;rounded=0;jumpStyle=line;orthogonalLoop=1;jettySize=auto;html=1;endArrow=diamondThin;endFill=1;endSize=12;strokeWidth=1;" edge="1" parent="1" source="O9s7gbecg066Yc_L37mW-42" target="O9s7gbecg066Yc_L37mW-31">
          <mxGeometry relative="1" as="geometry" />
        </mxCell>
        <mxCell id="O9s7gbecg066Yc_L37mW-42" value="addHabitEventActivity" style="swimlane;fontStyle=1;align=center;verticalAlign=top;childLayout=stackLayout;horizontal=1;startSize=26;horizontalStack=0;resizeParent=1;resizeParentMax=0;resizeLast=0;collapsible=1;marginBottom=0;strokeColor=#b85450;fillColor=#f8cecc;" vertex="1" parent="1">
          <mxGeometry x="1910" y="24" width="160" height="34" as="geometry" />
        </mxCell>
        <mxCell id="O9s7gbecg066Yc_L37mW-43" value="" style="line;strokeWidth=1;fillColor=#f8cecc;align=left;verticalAlign=middle;spacingTop=-1;spacingLeft=3;spacingRight=3;rotatable=0;labelPosition=right;points=[];portConstraint=eastwest;strokeColor=#b85450;" vertex="1" parent="O9s7gbecg066Yc_L37mW-42">
          <mxGeometry y="26" width="160" height="8" as="geometry" />
        </mxCell>
        <mxCell id="O9s7gbecg066Yc_L37mW-47" style="edgeStyle=none;rounded=0;jumpStyle=line;orthogonalLoop=1;jettySize=auto;html=1;endArrow=diamondThin;endFill=1;endSize=12;strokeWidth=1;" edge="1" parent="1" source="O9s7gbecg066Yc_L37mW-45" target="O9s7gbecg066Yc_L37mW-31">
          <mxGeometry relative="1" as="geometry" />
        </mxCell>
        <mxCell id="O9s7gbecg066Yc_L37mW-45" value="viewHabitEventActivity" style="swimlane;fontStyle=1;align=center;verticalAlign=top;childLayout=stackLayout;horizontal=1;startSize=26;horizontalStack=0;resizeParent=1;resizeParentMax=0;resizeLast=0;collapsible=1;marginBottom=0;strokeColor=#b85450;fillColor=#f8cecc;" vertex="1" parent="1">
          <mxGeometry x="2170" y="24" width="160" height="34" as="geometry" />
        </mxCell>
        <mxCell id="O9s7gbecg066Yc_L37mW-46" value="" style="line;strokeWidth=1;fillColor=#f8cecc;align=left;verticalAlign=middle;spacingTop=-1;spacingLeft=3;spacingRight=3;rotatable=0;labelPosition=right;points=[];portConstraint=eastwest;strokeColor=#b85450;" vertex="1" parent="O9s7gbecg066Yc_L37mW-45">
          <mxGeometry y="26" width="160" height="8" as="geometry" />
        </mxCell>
        <mxCell id="O9s7gbecg066Yc_L37mW-50" style="edgeStyle=none;rounded=0;jumpStyle=line;orthogonalLoop=1;jettySize=auto;html=1;entryX=1;entryY=0.5;entryDx=0;entryDy=0;endArrow=diamondThin;endFill=1;endSize=12;strokeWidth=1;" edge="1" parent="1" source="O9s7gbecg066Yc_L37mW-48" target="O9s7gbecg066Yc_L37mW-31">
          <mxGeometry relative="1" as="geometry" />
        </mxCell>
        <mxCell id="O9s7gbecg066Yc_L37mW-48" value="viewHabitEventListActivity" style="swimlane;fontStyle=1;align=center;verticalAlign=top;childLayout=stackLayout;horizontal=1;startSize=26;horizontalStack=0;resizeParent=1;resizeParentMax=0;resizeLast=0;collapsible=1;marginBottom=0;strokeColor=#b85450;fillColor=#f8cecc;" vertex="1" parent="1">
          <mxGeometry x="2270" y="100" width="160" height="34" as="geometry" />
        </mxCell>
        <mxCell id="O9s7gbecg066Yc_L37mW-49" value="" style="line;strokeWidth=1;fillColor=#f8cecc;align=left;verticalAlign=middle;spacingTop=-1;spacingLeft=3;spacingRight=3;rotatable=0;labelPosition=right;points=[];portConstraint=eastwest;strokeColor=#b85450;" vertex="1" parent="O9s7gbecg066Yc_L37mW-48">
          <mxGeometry y="26" width="160" height="8" as="geometry" />
        </mxCell>
        <mxCell id="O9s7gbecg066Yc_L37mW-53" style="edgeStyle=none;rounded=0;jumpStyle=line;orthogonalLoop=1;jettySize=auto;html=1;endArrow=diamondThin;endFill=1;endSize=12;strokeWidth=1;" edge="1" parent="1" source="O9s7gbecg066Yc_L37mW-51" target="O9s7gbecg066Yc_L37mW-31">
          <mxGeometry relative="1" as="geometry" />
        </mxCell>
        <mxCell id="O9s7gbecg066Yc_L37mW-51" value="deleteHabitEventActivity" style="swimlane;fontStyle=1;align=center;verticalAlign=top;childLayout=stackLayout;horizontal=1;startSize=26;horizontalStack=0;resizeParent=1;resizeParentMax=0;resizeLast=0;collapsible=1;marginBottom=0;strokeColor=#b85450;fillColor=#f8cecc;" vertex="1" parent="1">
          <mxGeometry x="2270" y="200" width="160" height="34" as="geometry" />
        </mxCell>
        <mxCell id="O9s7gbecg066Yc_L37mW-52" value="" style="line;strokeWidth=1;fillColor=#f8cecc;align=left;verticalAlign=middle;spacingTop=-1;spacingLeft=3;spacingRight=3;rotatable=0;labelPosition=right;points=[];portConstraint=eastwest;strokeColor=#b85450;" vertex="1" parent="O9s7gbecg066Yc_L37mW-51">
          <mxGeometry y="26" width="160" height="8" as="geometry" />
        </mxCell>
        <mxCell id="O9s7gbecg066Yc_L37mW-56" style="edgeStyle=none;rounded=0;jumpStyle=line;orthogonalLoop=1;jettySize=auto;html=1;endArrow=diamondThin;endFill=1;endSize=12;strokeWidth=1;" edge="1" parent="1" source="O9s7gbecg066Yc_L37mW-54" target="O9s7gbecg066Yc_L37mW-31">
          <mxGeometry relative="1" as="geometry" />
        </mxCell>
        <mxCell id="O9s7gbecg066Yc_L37mW-54" value="addLocationInformantion" style="swimlane;fontStyle=1;align=center;verticalAlign=top;childLayout=stackLayout;horizontal=1;startSize=26;horizontalStack=0;resizeParent=1;resizeParentMax=0;resizeLast=0;collapsible=1;marginBottom=0;strokeColor=#b85450;fillColor=#f8cecc;" vertex="1" parent="1">
          <mxGeometry x="2270" y="292" width="160" height="34" as="geometry" />
        </mxCell>
        <mxCell id="O9s7gbecg066Yc_L37mW-55" value="" style="line;strokeWidth=1;fillColor=#f8cecc;align=left;verticalAlign=middle;spacingTop=-1;spacingLeft=3;spacingRight=3;rotatable=0;labelPosition=right;points=[];portConstraint=eastwest;strokeColor=#b85450;" vertex="1" parent="O9s7gbecg066Yc_L37mW-54">
          <mxGeometry y="26" width="160" height="8" as="geometry" />
        </mxCell>
        <mxCell id="O9s7gbecg066Yc_L37mW-59" style="edgeStyle=none;rounded=0;jumpStyle=line;orthogonalLoop=1;jettySize=auto;html=1;endArrow=diamondThin;endFill=1;endSize=12;strokeWidth=1;" edge="1" parent="1" source="O9s7gbecg066Yc_L37mW-57" target="O9s7gbecg066Yc_L37mW-31">
          <mxGeometry relative="1" as="geometry" />
        </mxCell>
        <mxCell id="O9s7gbecg066Yc_L37mW-57" value="addContentActivity" style="swimlane;fontStyle=1;align=center;verticalAlign=top;childLayout=stackLayout;horizontal=1;startSize=26;horizontalStack=0;resizeParent=1;resizeParentMax=0;resizeLast=0;collapsible=1;marginBottom=0;strokeColor=#b85450;fillColor=#f8cecc;" vertex="1" parent="1">
          <mxGeometry x="2190" y="368" width="160" height="34" as="geometry" />
        </mxCell>
        <mxCell id="O9s7gbecg066Yc_L37mW-58" value="" style="line;strokeWidth=1;fillColor=#f8cecc;align=left;verticalAlign=middle;spacingTop=-1;spacingLeft=3;spacingRight=3;rotatable=0;labelPosition=right;points=[];portConstraint=eastwest;strokeColor=#b85450;" vertex="1" parent="O9s7gbecg066Yc_L37mW-57">
          <mxGeometry y="26" width="160" height="8" as="geometry" />
        </mxCell>
        <mxCell id="O9s7gbecg066Yc_L37mW-66" style="edgeStyle=none;rounded=0;jumpStyle=line;orthogonalLoop=1;jettySize=auto;html=1;endArrow=diamondThin;endFill=1;endSize=12;strokeWidth=1;" edge="1" parent="1" source="O9s7gbecg066Yc_L37mW-60" target="jQMmRSuvDewq5A6XQlnB-67">
          <mxGeometry relative="1" as="geometry" />
        </mxCell>
        <mxCell id="O9s7gbecg066Yc_L37mW-60" value="userAdapter" style="swimlane;fontStyle=1;align=center;verticalAlign=top;childLayout=stackLayout;horizontal=1;startSize=26;horizontalStack=0;resizeParent=1;resizeParentMax=0;resizeLast=0;collapsible=1;marginBottom=0;fillColor=#d5e8d4;strokeColor=#82b366;" vertex="1" parent="1">
          <mxGeometry x="470" y="700" width="160" height="156" as="geometry">
            <mxRectangle x="390" y="120" width="80" height="26" as="alternateBounds" />
          </mxGeometry>
        </mxCell>
        <mxCell id="O9s7gbecg066Yc_L37mW-61" value="HabitList&lt;habit&gt;" style="text;strokeColor=#82b366;fillColor=#d5e8d4;align=left;verticalAlign=top;spacingLeft=4;spacingRight=4;overflow=hidden;rotatable=0;points=[[0,0.5],[1,0.5]];portConstraint=eastwest;" vertex="1" parent="O9s7gbecg066Yc_L37mW-60">
          <mxGeometry y="26" width="160" height="26" as="geometry" />
        </mxCell>
        <mxCell id="O9s7gbecg066Yc_L37mW-62" value="HabitEvenList&lt;habitevent&gt;" style="text;strokeColor=#82b366;fillColor=#d5e8d4;align=left;verticalAlign=top;spacingLeft=4;spacingRight=4;overflow=hidden;rotatable=0;points=[[0,0.5],[1,0.5]];portConstraint=eastwest;" vertex="1" parent="O9s7gbecg066Yc_L37mW-60">
          <mxGeometry y="52" width="160" height="26" as="geometry" />
        </mxCell>
        <mxCell id="O9s7gbecg066Yc_L37mW-63" value="UserProfile" style="text;strokeColor=#82b366;fillColor=#d5e8d4;align=left;verticalAlign=top;spacingLeft=4;spacingRight=4;overflow=hidden;rotatable=0;points=[[0,0.5],[1,0.5]];portConstraint=eastwest;" vertex="1" parent="O9s7gbecg066Yc_L37mW-60">
          <mxGeometry y="78" width="160" height="26" as="geometry" />
        </mxCell>
        <mxCell id="O9s7gbecg066Yc_L37mW-64" value="requestSendList" style="text;strokeColor=#82b366;fillColor=#d5e8d4;align=left;verticalAlign=top;spacingLeft=4;spacingRight=4;overflow=hidden;rotatable=0;points=[[0,0.5],[1,0.5]];portConstraint=eastwest;" vertex="1" parent="O9s7gbecg066Yc_L37mW-60">
          <mxGeometry y="104" width="160" height="26" as="geometry" />
        </mxCell>
        <mxCell id="O9s7gbecg066Yc_L37mW-65" value="requestReceivedList" style="text;strokeColor=#82b366;fillColor=#d5e8d4;align=left;verticalAlign=top;spacingLeft=4;spacingRight=4;overflow=hidden;rotatable=0;points=[[0,0.5],[1,0.5]];portConstraint=eastwest;" vertex="1" parent="O9s7gbecg066Yc_L37mW-60">
          <mxGeometry y="130" width="160" height="26" as="geometry" />
        </mxCell>
      </root>
    </mxGraphModel>
  </diagram>
</mxfile>
